<svg class="points" width="157" height="149" viewBox="0 0 157 149">
       <g id="Gruppe_1" data-name="Gruppe 1" transform="translate(-1350 -333)">
         <circle id="Ellipse_1" data-name="Ellipse 1" cx="17" cy="17" r="17" transform="translate(1350 333)" opacity="0.242"/>
         <circle id="Ellipse_1-2" data-name="Ellipse 1" cx="17" cy="17" r="17" transform="translate(1391 333)" opacity="0.242"/>
         <circle id="Ellipse_1-3" data-name="Ellipse 1" cx="17" cy="17" r="17" transform="translate(1432 333)" opacity="0.242"/>
         <circle id="Ellipse_1-4" data-name="Ellipse 1" cx="17" cy="17" r="17" transform="translate(1473 333)" opacity="0.242"/>
         <circle id="Ellipse_1-5" data-name="Ellipse 1" cx="17" cy="17" r="17" transform="translate(1350 373)" opacity="0.242"/>
         <circle id="Ellipse_1-6" data-name="Ellipse 1" cx="17" cy="17" r="17" transform="translate(1391 373)" opacity="0.242"/>
         <circle id="Ellipse_1-7" data-name="Ellipse 1" cx="17" cy="17" r="17" transform="translate(1432 373)" opacity="0.242"/>
         <circle id="Ellipse_1-8" data-name="Ellipse 1" cx="17" cy="17" r="17" transform="translate(1473 373)" opacity="0.242"/>
         <ellipse id="Ellipse_1-9" data-name="Ellipse 1" cx="17" cy="16.5" rx="17" ry="16.5" transform="translate(1350 411)" opacity="0.242"/>
         <ellipse id="Ellipse_1-10" data-name="Ellipse 1" cx="17" cy="16.5" rx="17" ry="16.5" transform="translate(1391 411)" opacity="0.242"/>
         <ellipse id="Ellipse_1-11" data-name="Ellipse 1" cx="17" cy="16.5" rx="17" ry="16.5" transform="translate(1432 411)" opacity="0.242"/>
         <ellipse id="Ellipse_1-12" data-name="Ellipse 1" cx="17" cy="16.5" rx="17" ry="16.5" transform="translate(1473 411)" opacity="0.242"/>
         <circle id="Ellipse_1-13" data-name="Ellipse 1" cx="17" cy="17" r="17" transform="translate(1350 448)" opacity="0.242"/>
         <circle id="Ellipse_1-14" data-name="Ellipse 1" cx="17" cy="17" r="17" transform="translate(1391 448)" opacity="0.242"/>
         <circle id="Ellipse_1-15" data-name="Ellipse 1" cx="17" cy="17" r="17" transform="translate(1432 448)" opacity="0.242"/>
         <circle id="Ellipse_1-16" data-name="Ellipse 1" cx="17" cy="17" r="17" transform="translate(1473 448)" opacity="0.242"/>
       </g>
     </svg>