<svg  width="442" height="442" viewBox="0 0 442 442">
  <g id="Gruppe_13" data-name="Gruppe 13" transform="translate(-1235 -168)" opacity="0.348">
    <rect id="Rechteck_37" data-name="Rechteck 37" width="88" height="89" rx="11" transform="translate(1412 256)" fill="#ff39e1"/>
    <rect id="Rechteck_41" data-name="Rechteck 41" width="89" height="88" rx="11" transform="translate(1323 168)" fill="#ff39e1"/>
    <rect id="Rechteck_42" data-name="Rechteck 42" width="88" height="89" rx="11" transform="translate(1242 256)" fill="#ff39e1"/>
    <rect id="Rechteck_43" data-name="Rechteck 43" width="88" height="88" rx="11" transform="translate(1235 433)" fill="#ff39e1"/>
    <rect id="Rechteck_44" data-name="Rechteck 44" width="89" height="89" rx="11" transform="translate(1323 521)" fill="#ff39e1"/>
    <rect id="Rechteck_45" data-name="Rechteck 45" width="88" height="89" rx="11" transform="translate(1500 521)" fill="#ff39e1"/>
    <rect id="Rechteck_46" data-name="Rechteck 46" width="89" height="88" rx="11" transform="translate(1588 433)" fill="#ff39e1"/>
    <rect id="Rechteck_47" data-name="Rechteck 47" width="89" height="89" rx="11" transform="translate(1588 256)" fill="#ff39e1"/>
    <rect id="Rechteck_48" data-name="Rechteck 48" width="89" height="88" rx="11" transform="translate(1501 168)" fill="#ff39e1"/>
    <rect id="Rechteck_38" data-name="Rechteck 38" width="88" height="88" rx="11" transform="translate(1500 345)" fill="#ff39e1"/>
    <rect id="Rechteck_39" data-name="Rechteck 39" width="88" height="88" rx="11" transform="translate(1412 433)" fill="#ff39e1"/>
    <rect id="Rechteck_40" data-name="Rechteck 40" width="89" height="88" rx="11" transform="translate(1323 345)" fill="#ff39e1"/>
    <circle id="Ellipse_2" data-name="Ellipse 2" cx="44" cy="44" r="44" transform="translate(1412 345)" fill="#712fbf"/>
    <ellipse id="Ellipse_3" data-name="Ellipse 3" cx="44.5" cy="44" rx="44.5" ry="44" transform="translate(1323 433)" fill="#712fbf"/>
    <circle id="Ellipse_4" data-name="Ellipse 4" cx="44.5" cy="44.5" r="44.5" transform="translate(1323 256)" fill="#712fbf"/>
    <circle id="Ellipse_5" data-name="Ellipse 5" cx="44" cy="44" r="44" transform="translate(1500 433)" fill="#712fbf"/>
    <ellipse id="Ellipse_6" data-name="Ellipse 6" cx="44" cy="44.5" rx="44" ry="44.5" transform="translate(1500 256)" fill="#712fbf"/>
  </g>
</svg>